<svg xmlns="http://www.w3.org/2000/svg" width="197.839" height="256.076" viewBox="0 0 197.839 256.076">
  <g id="undraw_Letter_re_8m03" transform="translate(-0.002 -0.001)">
    <path id="Path_7" data-name="Path 7" d="M352.514,350.975l55.073-11.88.716-.154a1.981,1.981,0,0,1,2.2,2.815l-21.866,44.405a1.988,1.988,0,0,1-1.476,1.081,1.968,1.968,0,0,1-1.735-.595l-15.188-16.014a1.153,1.153,0,0,0-.847-.37,1.193,1.193,0,0,0-1.061.617l-3.111,5.754a1.935,1.935,0,0,1-2.167.993l-.016,0a1.938,1.938,0,0,1-1.536-1.841l-.623-13.283a1.212,1.212,0,0,0-.122-.477,1.289,1.289,0,0,0-.312-.386l-8.762-7.192a1.983,1.983,0,0,1,.837-3.47Zm-.336,2.859,8.762,7.193a1.951,1.951,0,0,1,.308.312l46.439-21.061a.683.683,0,0,1,.128-.045.793.793,0,0,1,.661,1.412l-38.183,28.048a1.9,1.9,0,0,1,.517.394L386,386.1a1.189,1.189,0,0,0,1.927-.292L409.79,341.4a1.191,1.191,0,0,0-1.318-1.687l-.733.158-55.056,11.876a1.191,1.191,0,0,0-.506,2.083Z" transform="translate(-213.397 -254.868)" fill="#f7b32b" stroke="#e6e6e6" stroke-width="1"/>
    <path id="Path_8" data-name="Path 8" d="M668.609,419c6.91-1.334,15.319-6.884,13.518-14.511-.893-3.783-4.32-6.232-7.873-7.815a43.477,43.477,0,0,0-15.906-3.224,131.311,131.311,0,0,0-18.612,1.007c-6.1.633-12.193,1.2-18.317,1.546a328.011,328.011,0,0,1-71.491-3.8q-8.671-1.431-17.238-3.357a150.881,150.881,0,0,1-15.834-4.231c-6.79-2.331-17.833-6.866-16.933-15.266.477-4.454,4.146-8.011,7.846-10.489,4.474-3,9.651-4.968,14.722-6.883q35.379-13.358,70.827-26.557c5.51-2.066,11.057-4.076,16.4-6.5,5.007-2.267,9.99-4.9,14.019-8.54,3.519-3.18,6.664-7.448,6.553-12.22-.092-3.957-2.611-7.315-5.7-9.825-7.638-6.214-18.442-8.733-28.207-10.053-12.132-1.639-24.439-1.631-36.579-3.214-9.8-1.278-20.276-3.746-28.247-9.529a17.8,17.8,0,0,1-6.886-8.6,12.52,12.52,0,0,1,1.416-10.207c2.159-3.688,5.6-6.625,9.226-9.031a60.46,60.46,0,0,1,13.993-6.684c10.767-3.668,22.089-5.578,33.117-8.393a88.2,88.2,0,0,0,15.894-5.266c4.255-2.009,8.89-4.717,11.257-8.744,4.884-8.309-6.768-13.26-13.37-15.136a113.517,113.517,0,0,0-13.818-2.828c-1-.153-.573-1.574.418-1.422a108.941,108.941,0,0,1,14.511,3.029c3.981,1.183,8.089,2.737,11.217,5.412,2.88,2.442,4.174,5.644,3.56,8.808-.828,3.986-4.429,7.058-7.811,9.283a56.262,56.262,0,0,1-14.741,6.43c-5.445,1.65-11,2.935-16.563,4.2-11.107,2.52-22.712,4.765-32.738,10.127-7.014,3.751-16.542,10.784-14.209,19.5,1.036,3.87,4.181,6.895,7.575,9.12a49.734,49.734,0,0,0,13.565,5.9c22.219,6.393,46.672,1.821,68.318,10.5,7.36,2.952,16.3,8.327,16.371,16.785.037,4.393-2.426,8.423-5.471,11.608-3.647,3.815-8.37,6.635-13.176,8.993q-7.59,3.587-15.734,6.513-8.882,3.335-17.767,6.662L543.77,345.58l-17.861,6.7c-5.451,2.044-11.043,4-16,7-4.058,2.457-8.853,6.487-8.439,11.491.329,3.974,4.022,6.842,7.4,8.76a61.249,61.249,0,0,0,14.162,5.424c5.633,1.539,11.359,2.816,17.1,3.964a313.893,313.893,0,0,0,35.867,5.019,329.3,329.3,0,0,0,36.437.971q9.218-.265,18.407-1.054c6.315-.544,12.6-1.382,18.933-1.753a69.489,69.489,0,0,1,17.148.822c4.709.9,9.684,2.51,13.258,5.648a10.307,10.307,0,0,1,3.71,8.439,12.913,12.913,0,0,1-4.345,8.363,21.276,21.276,0,0,1-10.511,5.045c-.987.191-1.409-1.23-.418-1.422Z" transform="translate(-493.136 -164.483)" fill="#e6e6e6"/>
    <rect id="Rectangle_18" data-name="Rectangle 18" width="180.814" height="0.888" transform="translate(0.002 255.189)" fill="#3f3d56"/>
    <circle id="Ellipse_6" data-name="Ellipse 6" cx="8.385" cy="8.385" r="8.385" transform="translate(1.9 196.607)" fill="#e6e6e6"/>
    <circle id="Ellipse_7" data-name="Ellipse 7" cx="8.385" cy="8.385" r="8.385" transform="translate(17.198 78.424)" fill="#e6e6e6"/>
    <path id="Path_9" data-name="Path 9" d="M684.558,127.119l23.283,10.121a4.236,4.236,0,0,1,2.193,5.567l-7.23,16.63a4.236,4.236,0,0,1-5.567,2.194L673.955,151.51a4.236,4.236,0,0,1-2.194-5.567l7.23-16.63A4.236,4.236,0,0,1,684.558,127.119Zm-.964,2.217a1.806,1.806,0,0,0-.435-.125l7.872,14.851,16.167-4.424a1.812,1.812,0,0,0-.321-.18Zm-8.676,19.956L698.2,159.414a1.815,1.815,0,0,0,2.386-.94l7.165-16.481-17.017,4.657a1.209,1.209,0,0,1-1.387-.6l-8.239-15.545-7.13,16.4A1.816,1.816,0,0,0,674.919,149.293Z" transform="translate(-650.418 -126.768)" fill="#e6e6e6"/>
    <circle id="Ellipse_8" data-name="Ellipse 8" cx="21.2" cy="21.2" r="21.2" transform="translate(49.456 102.206)" fill="#f7b32b"/>
    <path id="Path_10" data-name="Path 10" d="M643.566,689.515h5.847a2.578,2.578,0,0,0,2.575-2.575V638.212a2.578,2.578,0,0,0-2.575-2.575h-5.847a2.578,2.578,0,0,0-2.575,2.575V686.94A2.578,2.578,0,0,0,643.566,689.515Z" transform="translate(-569.57 -434.064)" fill="#2f2e41"/>
    <path id="Path_11" data-name="Path 11" d="M672.759,689.515h5.846a2.578,2.578,0,0,0,2.575-2.575V638.212a2.578,2.578,0,0,0-2.575-2.575h-5.847a2.578,2.578,0,0,0-2.575,2.575V686.94A2.578,2.578,0,0,0,672.759,689.515Z" transform="translate(-610.327 -434.064)" fill="#2f2e41"/>
    <path id="Path_12" data-name="Path 12" d="M696.169,551.624a2.585,2.585,0,0,0,.758-.114,2.559,2.559,0,0,0,1.519-1.255l22.842-43.043a2.574,2.574,0,0,0-1.067-3.481l-5.164-2.741a2.574,2.574,0,0,0-3.481,1.067L688.734,545.1a2.574,2.574,0,0,0,1.067,3.481l5.164,2.74A2.557,2.557,0,0,0,696.169,551.624Z" transform="translate(-667.701 -352.572)" fill="#f7b32b"/>
    <path id="Path_13" data-name="Path 13" d="M515.652,486.681a2.558,2.558,0,0,0,.9-.165h0l45.584-17.221a2.572,2.572,0,0,0,1.5-3.318l-2.062-5.469a2.582,2.582,0,0,0-3.322-1.5l-45.583,17.217a2.582,2.582,0,0,0-1.5,3.317l2.066,5.47A2.587,2.587,0,0,0,515.652,486.681Z" transform="translate(-429.896 -327.302)" fill="#f7b32b"/>
    <rect id="Rectangle_19" data-name="Rectangle 19" width="31.318" height="61.191" rx="6" transform="translate(55.238 148.289)" fill="#2f2e41"/>
    <path id="Path_14" data-name="Path 14" d="M637.591,384.51c-1.246,2.733-2.438,6.037-1.1,8.961a4.527,4.527,0,0,0,6.75,2.227c2.7-1.4,4.434-4.01,6.841-5.8a8.135,8.135,0,0,1,3.765-1.622,15.1,15.1,0,0,1,4.7.455,6.218,6.218,0,0,0,7.856-3.779c.314-.7,1.338-.093,1.026.6a7.347,7.347,0,0,1-7.19,4.607c-1.7-.12-3.347-.67-5.052-.748a6.751,6.751,0,0,0-4.319,1.381c-2.643,1.884-4.437,4.777-7.469,6.145a6.061,6.061,0,0,1-4.577.359,6,6,0,0,1-3.065-2.669c-1.99-3.426-.712-7.387.807-10.72.317-.695,1.341-.092,1.026.6Z" transform="translate(-582.595 -281.865)" fill="#2f2e41"/>
    <path id="Path_15" data-name="Path 15" d="M662.821,435.614a7.291,7.291,0,0,0,4.195-1,3.221,3.221,0,0,0,1.268-2.405,2.167,2.167,0,0,0-.737-1.78,2.8,2.8,0,0,0-2.646-.381l1.07-7.814-.785-.108-1.257,9.186.655-.3a2.4,2.4,0,0,1,2.451.022,1.392,1.392,0,0,1,.457,1.147,2.435,2.435,0,0,1-.943,1.794,6.553,6.553,0,0,1-3.75.847Z" transform="translate(-594.509 -305.13)" fill="#2f2e41"/>
    <rect id="Rectangle_20" data-name="Rectangle 20" width="4.267" height="0.792" transform="translate(75.343 117.779)" fill="#2f2e41"/>
    <rect id="Rectangle_21" data-name="Rectangle 21" width="4.267" height="0.792" transform="translate(61.875 117.779)" fill="#2f2e41"/>
    <path id="Path_16" data-name="Path 16" d="M584.2,499.3l18.734-5.712a2.377,2.377,0,0,0,1.61-2.858l-2.187-8.617a2.377,2.377,0,0,0-3.324-1.562l-18.581,8.832a2.381,2.381,0,0,0-1.384,3.062l2.066,5.47A2.381,2.381,0,0,0,584.2,499.3Z" transform="translate(-497.605 -340.27)" fill="#2f2e41"/>
    <path id="Path_17" data-name="Path 17" d="M710.193,506.424l-8.034,17.862a2.377,2.377,0,0,1-3.039,1.236l-8.272-3.259a2.377,2.377,0,0,1-1.129-3.495l11.11-17.316a2.381,2.381,0,0,1,3.213-.986l5.165,2.741A2.381,2.381,0,0,1,710.193,506.424Z" transform="translate(-647.205 -352.27)" fill="#2f2e41"/>
    <path id="Path_18" data-name="Path 18" d="M352.514,350.975l55.073-11.88.716-.154a1.981,1.981,0,0,1,2.2,2.815l-21.866,44.405a1.988,1.988,0,0,1-1.476,1.081,1.968,1.968,0,0,1-1.735-.595l-15.188-16.014a1.153,1.153,0,0,0-.847-.37,1.193,1.193,0,0,0-1.061.617l-3.111,5.754a1.935,1.935,0,0,1-2.167.993l-.016,0a1.938,1.938,0,0,1-1.536-1.841l-.623-13.283a1.212,1.212,0,0,0-.122-.477,1.289,1.289,0,0,0-.312-.386l-8.762-7.192a1.983,1.983,0,0,1,.837-3.47Zm-.336,2.859,8.762,7.193a1.951,1.951,0,0,1,.308.312,1.845,1.845,0,0,1,.211.331,1.9,1.9,0,0,1,.144.377v0a1.872,1.872,0,0,1,.062.415l.623,13.282a1.15,1.15,0,0,0,.92,1.1l.008,0a1.153,1.153,0,0,0,1.3-.592l3.112-5.758a1.976,1.976,0,0,1,1.624-1.032h0c.045,0,.09,0,.135,0a1.928,1.928,0,0,1,.9.223,1.9,1.9,0,0,1,.517.394L386,386.1a1.189,1.189,0,0,0,1.927-.292L409.79,341.4a1.191,1.191,0,0,0-1.318-1.687l-.733.158-55.056,11.876a1.191,1.191,0,0,0-.506,2.083Z" transform="translate(-213.397 -254.868)" fill="#3f3d56"/>
    <path id="Path_19" data-name="Path 19" d="M355.747,363.416l.327.722.2-.089v0l46.4-21.04-38.747,28.467h0l-.1.079.467.639.674-.5,38.183-28.048a.793.793,0,0,0-.661-1.412.693.693,0,0,0-.128.045l-46.439,21.061Z" transform="translate(-208.072 -256.867)" fill="#3f3d56"/>
  </g>
</svg>
