<svg xmlns="http://www.w3.org/2000/svg" viewBox="0 0 992 992"><defs><style>.cls-1{fill:#1966C5;}.cls-2{fill:#fff;}</style></defs><title>Asset 1ldpi</title><g id="Layer_2" data-name="Layer 2"><g id="Layer_1-2" data-name="Layer 1"><rect class="cls-1" width="992" height="992" rx="118.48"/><path class="cls-2" d="M348.14,523.22a50.52,50.52,0,0,1-20.09-96.88l196.31-85L329.94,244.16a50.51,50.51,0,1,1,45.18-90.35L666.49,299.49A50.51,50.51,0,0,1,664,391l-295.78,128A50.34,50.34,0,0,1,348.14,523.22Z"/><path class="cls-2" d="M353.24,840.06a50.51,50.51,0,0,1-50.51-50.51V637.25a50.51,50.51,0,0,1,101,0v152.3A50.5,50.5,0,0,1,353.24,840.06Z"/><path class="cls-2" d="M606.82,843.54h-.06c-27.89,0-50.48-22-50.45-49l.31-247.94c0-27,22.64-48.85,50.51-48.85h.06c27.89,0,50.48,22,50.45,49l-.31,247.93C657.3,821.68,634.69,843.54,606.82,843.54Z"/></g></g></svg>